<svg width="147" height="36" viewBox="0 0 147 36" fill="none" xmlns="http://www.w3.org/2000/svg">
<path fill-rule="evenodd" clip-rule="evenodd" d="M18.901 28.3336L18.8609 28.3106C18.1854 27.9231 17.4571 27.8432 16.7128 28.075C16.0992 28.2661 15.4101 28.2111 14.8094 27.8666C13.6707 27.2131 13.2801 25.7651 13.9378 24.6327C14.5955 23.5003 16.0518 23.1124 17.191 23.766C17.7914 24.1112 18.1839 24.6765 18.3242 25.3C18.4944 26.0565 18.9284 26.6441 19.604 27.0315L19.9493 27.2297C20.6244 27.6173 21.3529 27.6971 22.097 27.4653C22.5522 27.3235 23.0487 27.3171 23.5199 27.4644C24.2642 27.6962 24.9932 27.6161 25.6683 27.2285L26.0143 27.0298C26.6894 26.6422 27.1234 26.0555 27.2937 25.2993C27.3449 25.071 27.4317 24.8463 27.5557 24.6329C28.2132 23.5007 29.6698 23.1124 30.8089 23.7662C31.9478 24.42 32.3382 25.868 31.6805 27.0002C31.1123 27.9783 29.9481 28.4007 28.9074 28.0764C28.1631 27.8444 27.4341 27.9242 26.7583 28.3118L26.4132 28.5098C25.7381 28.8974 25.3041 29.4846 25.1336 30.241C25.0821 30.4693 24.9953 30.6945 24.8713 30.9079C24.3035 31.886 23.1393 32.3084 22.0984 31.9841C21.3539 31.752 20.6251 31.8317 19.9496 32.2195L19.6038 32.4182C18.9287 32.8055 18.4947 33.3925 18.3244 34.1492C18.2731 34.3777 18.1861 34.6024 18.0621 34.816C17.4046 35.948 15.9481 36.3363 14.8089 35.6825C14.2087 35.3378 13.8164 34.7726 13.6759 34.1492C13.5054 33.3929 13.0717 32.8062 12.3965 32.4189L12.0493 32.2195C11.3742 31.8322 10.6462 31.752 9.90217 31.9836C9.2893 32.1742 8.60037 32.1188 8.00014 31.7745C6.86146 31.121 6.47085 29.673 7.12854 28.5406C7.78624 27.4082 9.24256 27.0203 10.3817 27.6744C10.9822 28.0188 11.3747 28.5842 11.5149 29.2077C11.6852 29.9639 12.119 30.5509 12.7938 30.9382L13.1408 31.1373C13.8159 31.5249 14.5444 31.6051 15.2882 31.3734C15.743 31.2324 16.2395 31.226 16.7104 31.3727C17.4547 31.6046 18.1835 31.5245 18.859 31.1373L18.901 31.1134C19.4142 30.8187 19.708 30.3131 19.708 29.724C19.7077 29.1344 19.414 28.6288 18.9008 28.3346L18.901 28.3336ZM0.319556 24.6327C-0.337901 25.7649 0.0522331 27.2128 1.19116 27.8664C2.33032 28.5202 3.78665 28.1324 4.44434 27C5.01214 26.0221 4.79871 24.8088 3.99626 24.0754C3.42251 23.5507 3.128 22.8834 3.128 22.1085V21.7081C3.128 20.9336 3.42227 20.2668 3.99507 19.7422C4.16796 19.5836 4.32034 19.3968 4.44434 19.1837C4.56811 18.9703 4.65515 18.7456 4.70642 18.517C4.87669 17.7606 5.3107 17.1736 5.9858 16.786L6.33158 16.5874C7.00716 16.1996 7.73592 16.1199 8.48042 16.352C9.52109 16.6763 10.6855 16.2536 11.2533 15.2757C11.911 14.1433 11.5209 12.6954 10.3817 12.0418C9.24256 11.388 7.78624 11.7758 7.12854 12.9085C7.00454 13.1218 6.91774 13.3468 6.86647 13.5748C6.6962 14.3313 6.26219 14.9183 5.58708 15.3059L5.54917 15.3274C5.03598 15.6221 4.4484 15.6221 3.93521 15.3274C3.42203 15.033 3.12824 14.5271 3.12824 13.9383V13.8918C3.12824 13.1171 3.42251 12.4505 3.99531 11.9256C4.1682 11.7675 4.32058 11.5802 4.44458 11.3676C4.56835 11.154 4.65539 10.9293 4.70666 10.7008C4.87692 9.94453 5.31094 9.35758 5.98628 8.96999L6.33182 8.77157C7.0074 8.38398 7.73616 8.30409 8.48066 8.53617C9.52133 8.86046 10.6858 8.43803 11.2536 7.45992C11.9113 6.32773 11.5211 4.87978 10.382 4.22597C9.2428 3.57216 7.78648 3.96023 7.12878 5.09265C7.00478 5.30601 6.91774 5.53074 6.86647 5.75903C6.6962 6.51548 6.26243 7.10244 5.58708 7.49027L5.2413 7.68821C4.56548 8.07604 3.83696 8.15569 3.09247 7.92361C2.05179 7.59931 0.887826 8.02223 0.319318 9.00009C-0.248237 9.97796 -0.0350463 11.1912 0.767161 11.9247C1.34092 12.4495 1.63542 13.1164 1.63542 13.8913V14.292C1.63542 15.0664 1.34139 15.733 0.768353 16.2579C0.595702 16.416 0.443321 16.6033 0.319318 16.8164C-0.248237 17.794 -0.0350463 19.0073 0.767161 19.7412C1.34092 20.2656 1.63542 20.9329 1.63542 21.7076V22.1087C1.63542 22.8832 1.34163 23.5498 0.768592 24.0746C0.595702 24.233 0.443321 24.42 0.319318 24.6329L0.319556 24.6327ZM20.4852 22.4242C20.6251 23.0479 21.0181 23.6136 21.6184 23.958C22.7575 24.6116 24.2138 24.224 24.8715 23.0916C25.5292 21.9594 25.1391 20.5114 24.0002 19.8576C23.3995 19.5127 22.7105 19.4582 22.097 19.6492C21.3527 19.8813 20.6244 19.801 19.9488 19.4134L19.6038 19.2154C18.9284 18.8278 18.4947 18.2406 18.3242 17.4839C18.2204 17.0214 17.9777 16.5909 17.6145 16.2588C17.0407 15.7342 16.7462 15.0669 16.7462 14.292V13.8918C16.7462 13.1171 17.0402 12.4502 17.6135 11.9256C17.7864 11.767 17.9388 11.5802 18.0626 11.3676C18.7202 10.2352 18.3299 8.78721 17.191 8.13364C16.0518 7.47983 14.5955 7.86766 13.9378 9.00009C13.37 9.97796 13.5834 11.1912 14.3856 11.9247C14.9594 12.4495 15.2536 13.1164 15.2536 13.8913V14.292C15.2536 15.0667 14.9596 15.7333 14.3866 16.2579C14.2139 16.416 14.0615 16.6035 13.9378 16.8166C13.8138 17.0305 13.7265 17.2552 13.6752 17.4842C13.5052 18.2409 13.0712 18.8283 12.3958 19.2159L12.0524 19.4129C11.3766 19.8012 10.6474 19.8804 9.90264 19.6481C8.86149 19.3233 7.69681 19.746 7.12854 20.7243C6.47109 21.8565 6.86122 23.3044 8.00014 23.958C9.13931 24.6118 10.5956 24.224 11.2533 23.0916C11.3776 22.8777 11.4646 22.6528 11.5159 22.4238C11.6859 21.6671 12.1199 21.0796 12.7955 20.6918L13.1384 20.4951C13.8142 20.107 14.5437 20.0273 15.2882 20.2597C15.7599 20.4071 16.2573 20.4007 16.7128 20.259C17.4571 20.0271 18.1854 20.107 18.8609 20.4944L19.2055 20.6921C19.8811 21.0796 20.3151 21.6671 20.4852 22.424V22.4242ZM27.556 16.8166C27.6797 16.6035 27.8324 16.4165 28.005 16.2581C28.5781 15.7333 28.8718 15.0667 28.8718 14.2922V13.8918C28.8718 13.1168 28.5776 12.4498 28.0038 11.9249C27.6409 11.5933 27.3986 11.1628 27.2944 10.7012C27.1241 9.94501 26.6901 9.35805 26.015 8.9707L25.9766 8.94889C25.4634 8.65422 24.8758 8.65422 24.3626 8.94889C23.8495 9.24355 23.5557 9.7492 23.5557 10.3383V10.3845C23.5557 11.1595 23.8502 11.8263 24.4237 12.3512C25.2259 13.0848 25.4396 14.2981 24.8713 15.276C24.2136 16.4079 22.7573 16.796 21.6181 16.1424C20.4792 15.4889 20.0891 14.0409 20.7465 12.9087C20.8703 12.6956 21.0229 12.5086 21.1958 12.35C21.7688 11.8251 22.0629 11.1585 22.0629 10.384V9.98388C22.0629 9.20894 21.7684 8.54186 21.1946 8.01701C20.8316 7.68513 20.5894 7.25463 20.4852 6.7926C20.3149 6.03638 19.8809 5.44966 19.2058 5.06231L18.8588 4.86318C18.1837 4.47559 17.4554 4.3957 16.7114 4.62707C16.0985 4.8179 15.4094 4.76267 14.8089 4.41799C13.67 3.76442 13.2796 2.31646 13.9373 1.18427C14.595 0.0518402 16.0515 -0.336225 17.1905 0.317583C17.7905 0.661792 18.183 1.22741 18.3234 1.85088C18.4937 2.60686 18.9275 3.19382 19.6026 3.58117L19.9503 3.78054C20.6251 4.16789 21.3532 4.24778 22.0972 4.01665C22.7105 3.82605 23.3992 3.88105 23.9995 4.22549C24.5997 4.56994 24.992 5.13556 25.1324 5.75879C25.3027 6.51501 25.7367 7.10173 26.4118 7.48932L26.7588 7.68845C27.4339 8.07604 28.1624 8.15616 28.9062 7.92456C29.5195 7.73396 30.208 7.78896 30.8084 8.13364C31.9474 8.78721 32.3377 10.2354 31.68 11.3676C31.5565 11.5805 31.4039 11.7673 31.231 11.9256C30.658 12.45 30.3637 13.1171 30.3637 13.8918V14.292C30.3637 15.0667 30.6582 15.7342 31.232 16.2586C32.0344 16.9923 32.2481 18.2058 31.68 19.1834C31.0224 20.3156 29.566 20.7037 28.4269 20.0499C27.2879 19.3963 26.8978 17.9483 27.5553 16.8161L27.556 16.8166Z" fill="url(#paint0_linear_4021_83165)"/>
<path d="M45.8789 29H42.625V9.01172H53.918V11.7734H45.8789V18.0078H53.3984V20.7559H45.8789V29ZM69.9414 29L67.9863 23.4492H60.3438L58.3887 29H54.9297L62.3672 8.92969H66.0039L73.4277 29H69.9414ZM67.1387 20.6328L65.2383 15.1641C65.1654 14.9271 65.0605 14.5944 64.9238 14.166C64.7871 13.7285 64.6504 13.2865 64.5137 12.8398C64.377 12.3841 64.263 12.0013 64.1719 11.6914C64.0807 12.0651 63.9668 12.4844 63.8301 12.9492C63.7025 13.4049 63.5749 13.8333 63.4473 14.2344C63.3288 14.6354 63.2376 14.9453 63.1738 15.1641L61.2598 20.6328H67.1387ZM84.584 11.5137C83.627 11.5137 82.7702 11.6868 82.0137 12.0332C81.2663 12.3796 80.6328 12.8809 80.1133 13.5371C79.5938 14.1842 79.1973 14.9727 78.9238 15.9023C78.6504 16.8229 78.5137 17.862 78.5137 19.0195C78.5137 20.569 78.7324 21.9043 79.1699 23.0254C79.6074 24.1374 80.2728 24.9941 81.166 25.5957C82.0592 26.1882 83.1895 26.4844 84.5566 26.4844C85.4043 26.4844 86.2292 26.4023 87.0312 26.2383C87.8333 26.0742 88.6628 25.8509 89.5195 25.5684V28.3574C88.7083 28.6764 87.888 28.9089 87.0586 29.0547C86.2292 29.2005 85.2721 29.2734 84.1875 29.2734C82.1458 29.2734 80.4505 28.8496 79.1016 28.002C77.7617 27.1543 76.7591 25.9603 76.0938 24.4199C75.4375 22.8796 75.1094 21.0749 75.1094 19.0059C75.1094 17.4928 75.319 16.1074 75.7383 14.8496C76.1576 13.5918 76.7682 12.5072 77.5703 11.5957C78.3724 10.6751 79.3613 9.96875 80.5371 9.47656C81.722 8.97526 83.0755 8.72461 84.5977 8.72461C85.6003 8.72461 86.5846 8.83854 87.5508 9.06641C88.526 9.28516 89.4284 9.59961 90.2578 10.0098L89.1094 12.7168C88.4167 12.3887 87.6921 12.1061 86.9355 11.8691C86.179 11.6322 85.3952 11.5137 84.584 11.5137ZM100.744 29H97.4492V11.8008H91.5977V9.01172H106.582V11.8008H100.744V29ZM127.391 18.9785C127.391 20.5189 127.195 21.9225 126.803 23.1895C126.42 24.4473 125.841 25.5319 125.066 26.4434C124.292 27.3457 123.321 28.043 122.154 28.5352C120.988 29.0273 119.62 29.2734 118.053 29.2734C116.458 29.2734 115.072 29.0273 113.896 28.5352C112.73 28.043 111.759 27.3411 110.984 26.4297C110.219 25.5182 109.645 24.429 109.262 23.1621C108.879 21.8952 108.688 20.4915 108.688 18.9512C108.688 16.8913 109.025 15.0957 109.699 13.5645C110.383 12.0241 111.417 10.8301 112.803 9.98242C114.197 9.12565 115.956 8.69727 118.08 8.69727C120.158 8.69727 121.885 9.12109 123.262 9.96875C124.638 10.8164 125.668 12.0104 126.352 13.5508C127.044 15.082 127.391 16.8913 127.391 18.9785ZM112.133 18.9785C112.133 20.5189 112.342 21.8542 112.762 22.9844C113.181 24.1055 113.824 24.9714 114.689 25.582C115.564 26.1836 116.686 26.4844 118.053 26.4844C119.429 26.4844 120.55 26.1836 121.416 25.582C122.282 24.9714 122.92 24.1055 123.33 22.9844C123.74 21.8542 123.945 20.5189 123.945 18.9785C123.945 16.6361 123.476 14.804 122.537 13.4824C121.607 12.1517 120.122 11.4863 118.08 11.4863C116.713 11.4863 115.587 11.7871 114.703 12.3887C113.828 12.9902 113.181 13.8516 112.762 14.9727C112.342 16.0846 112.133 17.4199 112.133 18.9785ZM137.303 9.01172C139.025 9.01172 140.447 9.22135 141.568 9.64062C142.699 10.0599 143.537 10.6979 144.084 11.5547C144.64 12.4115 144.918 13.5007 144.918 14.8223C144.918 15.8066 144.736 16.6452 144.371 17.3379C144.007 18.0306 143.528 18.6048 142.936 19.0605C142.343 19.5163 141.71 19.8809 141.035 20.1543L146.709 29H143.004L138.178 20.9883H134.965V29H131.684V9.01172H137.303ZM137.084 11.7461H134.965V18.2812H137.234C138.757 18.2812 139.859 17.9987 140.543 17.4336C141.236 16.8685 141.582 16.0345 141.582 14.9316C141.582 13.7741 141.213 12.9538 140.475 12.4707C139.745 11.9876 138.615 11.7461 137.084 11.7461Z" fill="white"/>
<defs>
<linearGradient id="paint0_linear_4021_83165" x1="3.85103" y1="25.2339" x2="27.9306" y2="10.7257" gradientUnits="userSpaceOnUse">
<stop stop-color="#3383C5"/>
<stop offset="1" stop-color="#64C3C2"/>
</linearGradient>
</defs>
</svg>
