<svg width="1397" height="305" viewBox="0 0 1397 305" fill="none" xmlns="http://www.w3.org/2000/svg">
<path fill-rule="evenodd" clip-rule="evenodd" d="M412.135 69.9484H445.495V91.4798H447.085C450.576 87.1721 455.024 82.8668 460.108 79.2243C468.685 72.9303 481.074 66.6362 497.915 66.6362C540.803 66.6362 574.158 101.419 574.158 154.42C574.158 207.424 540.803 242.204 497.915 242.204C481.074 242.204 468.685 236.242 460.108 229.948C455.024 226.301 450.576 221.996 447.085 217.36H445.495V301.832H412.135V69.9484ZM491.558 210.736C520.471 210.736 539.213 191.189 539.213 154.42C539.213 117.649 520.471 98.1041 491.558 98.1041C464.556 98.1041 445.495 117.649 445.495 154.42C445.495 191.189 464.556 210.736 491.558 210.736Z" fill="white"/>
<path fill-rule="evenodd" clip-rule="evenodd" d="M599.045 69.9539H632.404V94.7975H633.994C636.535 89.8292 640.031 85.5239 644.159 81.5488C651.465 74.9245 662.263 68.2956 678.466 68.2956H697.532V101.424H676.883C651.465 101.424 632.404 119.643 632.404 147.799V238.897H599.045V69.9539Z" fill="white"/>
<path fill-rule="evenodd" clip-rule="evenodd" d="M786.633 66.6362C832.7 66.6362 869.233 105.063 869.233 154.422V166.013H737.394C742.477 194.173 762.81 210.736 786.633 210.736C803.153 210.736 814.909 205.435 822.216 199.141C826.347 195.829 829.843 191.854 832.7 187.546H867.643C863.514 197.813 858.112 207.091 850.808 215.041C838.103 228.292 818.721 242.204 786.633 242.204C740.572 242.204 704.037 203.779 704.037 154.422C704.037 105.063 740.572 66.6362 786.633 66.6362ZM834.288 137.857C830.793 117.982 815.546 98.1041 786.633 98.1041C764.394 98.1041 744.064 112.681 738.982 137.857H834.288Z" fill="white"/>
<path fill-rule="evenodd" clip-rule="evenodd" d="M893.375 69.9484H926.734V93.1381H928.324C931.182 88.1676 934.677 83.86 939.123 79.8849C946.749 73.2606 958.184 66.6362 975.975 66.6362C996.624 66.6362 1009.65 74.5841 1017.59 82.5365C1022.36 87.1721 1025.85 92.473 1028.4 98.1041H1029.98C1032.84 92.473 1036.97 87.1721 1042.37 82.5365C1050.95 74.5841 1064.93 66.6362 1085.58 66.6362C1122.43 66.6362 1145.94 91.1495 1145.94 137.857V238.892H1112.58V139.513C1112.58 111.355 1100.19 98.1041 1077.63 98.1041C1055.71 98.1041 1036.34 117.979 1036.34 146.14V238.892H1002.98V139.513C1002.98 111.355 990.588 98.1041 968.032 98.1041C946.112 98.1041 926.734 117.979 926.734 146.14V238.892H893.375V69.9484Z" fill="white"/>
<path fill-rule="evenodd" clip-rule="evenodd" d="M1194.56 3.67395C1205.68 3.67395 1214.57 12.9498 1214.57 24.5447C1214.57 36.1396 1205.68 45.0806 1194.56 45.0806C1183.44 45.0806 1174.86 36.1396 1174.86 24.5447C1174.86 12.9498 1183.44 3.67395 1194.56 3.67395ZM1178.04 238.872H1211.39V69.9287H1178.04V238.872Z" fill="white"/>
<path fill-rule="evenodd" clip-rule="evenodd" d="M1311.23 66.6362C1327.75 66.6362 1340.46 72.9303 1349.03 79.2243C1354.11 82.8668 1358.56 87.1744 1362.06 91.4798H1363.65V69.9484H1397V238.892H1363.65V215.704H1362.06C1358.56 220.673 1354.11 224.978 1349.03 228.955C1340.46 235.58 1327.75 242.204 1311.23 242.204C1268.34 242.204 1234.98 207.424 1234.98 154.422C1234.98 101.421 1268.34 66.6362 1311.23 66.6362ZM1317.58 210.736C1344.58 210.736 1363.65 191.191 1363.65 154.422C1363.65 117.651 1344.58 98.1041 1317.58 98.1041C1288.67 98.1041 1269.93 117.651 1269.93 154.422C1269.93 191.191 1288.67 210.736 1317.58 210.736Z" fill="white"/>
<path fill-rule="evenodd" clip-rule="evenodd" d="M82.4081 69.2585H220.269C228.108 69.2585 232.636 78.5321 228.028 85.1428L162.418 179.212C157.805 185.822 162.336 195.096 170.175 195.096H227.995C231.063 195.096 233.947 193.564 235.752 190.974L300.639 97.9436C303.084 94.4346 303.084 89.6858 300.639 86.1768L243.752 4.61912C241.946 2.02866 239.063 0.497009 235.995 0.497009H66.682C63.6119 0.497009 60.7305 2.02866 58.9254 4.61912L2.03786 86.1768C-0.407396 89.6858 -0.407396 94.4368 2.03786 97.9436L143.579 300.882C147.408 306.373 155.267 306.373 159.096 300.882L188.003 259.434C190.451 255.925 190.451 251.174 188.003 247.665L74.6514 85.1428C70.0407 78.5321 74.5689 69.2585 82.4081 69.2585Z" fill="#5294FF"/>
</svg>
