<svg width="1168" height="1129" viewBox="0 0 1168 1129" fill="none" xmlns="http://www.w3.org/2000/svg">
<path fill-rule="evenodd" clip-rule="evenodd" d="M317.506 254.792H849.982C880.26 254.792 897.749 289.147 879.949 313.638L626.538 662.13C608.721 686.621 626.219 720.977 656.497 720.977H879.824C891.673 720.977 902.811 715.302 909.783 705.706L1160.4 361.06C1169.85 348.061 1169.85 330.468 1160.4 317.468L940.681 15.3252C933.709 5.72844 922.572 0.0541992 910.722 0.0541992H256.766C244.908 0.0541992 233.779 5.72844 226.806 15.3252L7.08344 317.468C-2.36115 330.468 -2.36115 348.069 7.08344 361.06L553.772 1112.88C568.563 1133.22 598.916 1133.22 613.708 1112.88L725.358 959.328C734.811 946.329 734.811 928.728 725.358 915.728L287.547 313.638C269.739 289.147 287.228 254.792 317.506 254.792Z" fill="#5294FF"/>
</svg>
