<?xml version="1.0" encoding="utf-8"?>
<!-- Generator: Adobe Illustrator 28.0.0, SVG Export Plug-In . SVG Version: 6.00 Build 0)  -->
<svg version="1.1" id="Layer_1" xmlns="http://www.w3.org/2000/svg" xmlns:xlink="http://www.w3.org/1999/xlink" x="0px" y="0px"
	 viewBox="0 0 425 425" style="enable-background:new 0 0 425 425;" xml:space="preserve">
<style type="text/css">
	.st0{fill:#0C3533;}
	.st1{fill:#FFF5D2;}
</style>
<circle class="st0" cx="212.5" cy="212.5" r="212.5"/>
<g>
	<path class="st1" d="M349.8,202c-0.7-45.5-25.6-85.3-63-108.2c33,23.3,54.5,61.7,54.5,105.1c0,8.2-0.8,16.3-2.3,24.1l0,0l0,0v0.1
		c0,0,0,0,0,0.1c-0.6,2.5-8.1,33.7-40.1,44.1c-4.6,1.2-9.8,2.4-14.9,3c-0.5,0.1-1.1,0.1-1.6,0.2c0,0,0,0-0.1,0
		c-2.1,0.2-4.1,0.2-6.1,0.1c-21.7-1.2-88.8-15.3-86.1-46.8c0.7-8.2,4.4-17.6,30.1-19.8c25.6-2.1,33.2,3.4,43.1-4.2
		c9.9-7.6,8.2-22.8,8.2-22.8h-10.3c0,0,3.6,16.1-14.6,16.2c-18.2,0.1-2.2-16.2-2.2-16.2h-12.7c0,0-0.1,9.8-14.7,14.3
		c-7.3,2.2-23.2-1.9-37.7,4.1c-10.8,4.4-23.7,18.6-37.4,12.3c-7-3.2-5.7-10.4-5.7-13.6H126c0,0,0,2.3,0,5.3s1.1,10.7,7.2,15.9
		c6.1,5.3,14.1,2.5,25.5,11.8c32.5,26.5,12.8,75.5-38.4,51.3c-8.7-5.3-16.6-13.2-23.2-23.6c-0.3-0.4-0.4-0.7-0.6-0.9
		c-7.9-16.7-12.4-35.4-12.4-55.1c0-45.5,23.6-85.5,59.2-108.3c-41.3,23-68.8,65.9-68.1,114.7c1,72.2,63.4,130,139.2,129.1
		C290.2,333.5,350.9,274.2,349.8,202z"/>
	<path class="st1" d="M299.3,156.7c-2.5,0-4.9,0.5-7.1,1.6c-1.3,0.6-2.9,0.2-3.8-1c-9.2-12.3-26.5-14.8-38.8-5.7
		c-2.1,1.6-3.9,3.4-5.5,5.5c-0.9,1.1-2.4,1.5-3.7,1c-2.2-0.9-4.5-1.4-6.9-1.4c-7.4,0-14,4.7-16.4,11.7c-0.2,0.6-0.1,1.2,0.3,1.6
		c0.4,0.6,1.1,0.9,1.8,0.9h94.4c0.7,0,1.4-0.4,1.8-0.9s0.5-1.1,0.3-1.6C313.3,161.4,306.7,156.7,299.3,156.7z"/>
	<path class="st1" d="M143.3,147c0.4,0.6,1.1,0.9,1.8,0.9h99.2c12.6-10.7,31.1-10.7,43.7,0h25.1c0.6,0,1.3-0.3,1.7-0.8
		c0.4-0.5,0.5-1.1,0.4-1.7c-3.1-13.1-16.2-21.2-29.2-18.1c-2.2,0.5-4.4,1.4-6.4,2.5c-1.4,0.8-3.2,0.4-4.1-0.9
		c-12.2-17.9-36.6-22.4-54.5-10.2c-4.4,3-8.1,6.8-10.9,11.2c-0.9,1.4-2.8,1.9-4.3,0.9c0,0,0,0-0.1,0c-4.1-2.7-8.8-4.2-13.7-4.2
		c-7.4,0-14.5,3.4-19,9.2c-1,1.3-2.8,1.6-4.1,0.7c-2.8-1.8-6.1-2.8-9.5-2.8c-7.4,0-14,4.7-16.4,11.7
		C142.8,146,142.9,146.6,143.3,147z"/>
	<path class="st1" d="M156.2,171.4c-10.9-6.8-25.3-3.4-32.1,7.5c-0.1,0.1-0.1,0.2-0.2,0.3c-1.1,1.3-3,1.6-4.3,0.5
		c-1.1-0.8-2.2-1.6-3.5-2.1c-7.5-3.3-16.3,0.2-19.5,7.7c-0.3,0.6-0.2,1.3,0.2,1.9c0.4,0.6,1.1,1,1.8,1h65.9c0.6,0,1.3-0.3,1.7-0.8
		s0.6-1.2,0.4-1.8C165,179.6,161.3,174.6,156.2,171.4z"/>
</g>
</svg>
