<svg width="95" height="36" viewBox="0 0 95 36" fill="none" xmlns="http://www.w3.org/2000/svg">
<path fill-rule="evenodd" clip-rule="evenodd" d="M14.5899 18.3266L9.76587 28.803L6.66115 13.9161C6.62182 13.7275 6.47722 13.5785 6.28989 13.5336C5.57166 13.3613 4.50209 13.2751 3.08118 13.2751C1.8593 13.2751 0.962179 13.3388 0.389822 13.4662C0.12171 13.5259 -0.0474221 13.7914 0.0118278 14.0596L4.34912 33.6932C4.43554 34.0844 4.74796 34.3857 5.14201 34.4579C6.44875 34.6973 7.75548 34.7677 9.06222 34.6691C10.1086 34.5901 11.1551 34.4028 12.2015 34.1071C13.087 33.8569 13.8078 33.2125 14.1553 32.3605L17.2027 24.8883L20.2502 32.3605C20.5977 33.2125 21.3185 33.8569 22.204 34.1071C23.2504 34.4028 24.2968 34.5901 25.3433 34.6691C26.65 34.7677 27.9567 34.6973 29.2635 34.4579C29.6575 34.3857 29.9699 34.0844 30.0564 33.6932L34.3937 14.0596C34.4529 13.7914 34.2838 13.5259 34.0157 13.4662C33.4433 13.3388 32.5462 13.2751 31.3243 13.2751C29.9034 13.2751 28.8338 13.3613 28.1156 13.5336C27.9283 13.5785 27.7837 13.7275 27.7443 13.9161L24.6396 28.803L19.8156 18.3266C19.7797 18.2485 19.7246 18.1821 19.657 18.1327C19.608 18.0777 19.546 18.0327 19.4731 18.003C19.4437 17.991 19.4133 17.9818 19.3821 17.9756C18.6616 17.8325 17.9776 17.7609 17.3301 17.7609C17.2878 17.7609 17.2454 17.7613 17.2027 17.7619C17.1601 17.7613 17.1177 17.7609 17.0754 17.7609C16.4278 17.7609 15.7438 17.8325 15.0234 17.9756C14.9922 17.9818 14.9617 17.991 14.9323 18.003C14.8595 18.0327 14.7975 18.0777 14.7485 18.1327C14.6808 18.1821 14.6258 18.2485 14.5899 18.3266ZM17.6412 0.148234L22.7772 3.11353C23.034 3.26176 23.1922 3.53571 23.1922 3.83218V9.9179C23.1922 10.2168 23.0314 10.4926 22.7713 10.6399L17.6333 13.5503C17.295 13.7419 16.881 13.7419 16.5427 13.5503L11.4047 10.6399C11.1446 10.4926 10.9838 10.2168 10.9838 9.9179V3.83218C10.9838 3.53571 11.142 3.26176 11.3987 3.11353L16.5348 0.148234C16.8771 -0.0494112 17.2989 -0.0494112 17.6412 0.148234ZM17.0884 2.34628C17.6445 2.34628 18.0953 2.12087 18.0953 1.84282C18.0953 1.56476 17.6445 1.33936 17.0884 1.33936C16.5323 1.33936 16.0815 1.56476 16.0815 1.84282C16.0815 2.12087 16.5323 2.34628 17.0884 2.34628ZM18.0953 3.35279C18.0953 3.63085 17.6445 3.85626 17.0884 3.85626C16.5323 3.85626 16.0815 3.63085 16.0815 3.35279C16.0815 3.07474 16.5323 2.84933 17.0884 2.84933C17.6445 2.84933 18.0953 3.07474 18.0953 3.35279ZM17.0884 5.3663C17.6445 5.3663 18.0953 5.14089 18.0953 4.86284C18.0953 4.58478 17.6445 4.35938 17.0884 4.35938C16.5323 4.35938 16.0815 4.58478 16.0815 4.86284C16.0815 5.14089 16.5323 5.3663 17.0884 5.3663ZM21.1188 3.35279C21.1188 3.63085 20.6679 3.85626 20.1118 3.85626C19.5557 3.85626 19.1049 3.63085 19.1049 3.35279C19.1049 3.07474 19.5557 2.84933 20.1118 2.84933C20.6679 2.84933 21.1188 3.07474 21.1188 3.35279ZM14.065 3.85626C14.6211 3.85626 15.0719 3.63085 15.0719 3.35279C15.0719 3.07474 14.6211 2.84933 14.065 2.84933C13.5089 2.84933 13.058 3.07474 13.058 3.35279C13.058 3.63085 13.5089 3.85626 14.065 3.85626ZM20.4638 9.57168C20.1636 9.62058 19.9847 9.1172 20.0643 8.44735C20.1438 7.7775 20.4468 7.2563 20.7409 7.28322C21.0351 7.31015 21.2139 7.81353 21.1405 8.40755C21.067 9.00158 20.764 9.52277 20.4638 9.57168ZM11.8782 7.29464C11.9019 7.79283 12.1714 8.1696 12.4802 8.13626C12.7893 8.10298 13.0088 7.66421 12.9699 7.15636C12.9309 6.64875 12.6605 6.27203 12.3665 6.31484C12.0729 6.35774 11.8544 6.79645 11.8782 7.29464ZM13.7291 9.41153C13.409 9.43701 13.1189 9.04535 13.0808 8.53689C13.0425 8.02866 13.2591 7.58797 13.5652 7.55245C13.8715 7.51702 14.1629 7.90808 14.2154 8.42623C14.2673 8.9448 14.0493 9.38609 13.7291 9.41153ZM14.3526 9.838C14.4029 10.3577 14.7107 10.7652 15.0406 10.7478C15.3705 10.7303 15.5878 10.2859 15.5251 9.7557C15.4615 9.22612 15.1518 8.81974 14.8343 8.84754C14.5171 8.87539 14.3017 9.31868 14.3526 9.838ZM16.9322 6.39036C17.0772 6.4543 17.2426 6.45298 17.3866 6.38674L20.1585 5.1113C20.2379 5.07477 20.3319 5.10952 20.3684 5.1889C20.4024 5.26283 20.3748 5.3505 20.3046 5.3916L17.7862 6.8655C17.6246 6.96005 17.5218 7.12989 17.513 7.31687L17.3656 10.4384C17.3608 10.5398 17.2748 10.618 17.1735 10.6132C17.0798 10.6088 17.0045 10.5345 16.9988 10.4408L16.8114 7.31909C16.8001 7.13091 16.6937 6.96143 16.5292 6.86941L13.8868 5.3916C13.8108 5.34908 13.7837 5.25298 13.8262 5.17695C13.8659 5.10597 13.9531 5.07681 14.0275 5.10962L16.9322 6.39036ZM50.6645 13.2936C50.2016 13.3773 49.8738 13.7837 49.8738 14.2541V34.1811C49.8738 34.6443 50.192 35.0466 50.6467 35.1356C51.4263 35.2882 52.6414 35.4896 53.55 35.4713C54.297 35.4563 55.2784 35.284 55.9552 35.1458C56.4172 35.0515 56.7343 34.6347 56.7203 34.1635L56.4425 24.7741C56.4413 24.7315 56.4755 24.6962 56.5182 24.6962C56.5452 24.6962 56.5702 24.7106 56.5837 24.7339L62.3014 34.5939C62.4409 34.8346 62.6738 35.0063 62.9465 35.0616C63.6413 35.2023 65.0413 35.4594 66.05 35.4713C67.0124 35.4827 68.3037 35.279 69.1209 35.1281C69.582 35.043 69.9074 34.6376 69.9074 34.1686V14.2439C69.9074 13.7781 69.5864 13.3744 69.129 13.2869C68.4161 13.1504 67.3528 12.9763 66.55 12.9713C65.7064 12.9661 64.5866 13.1443 63.8404 13.2843C63.3715 13.3723 63.0466 13.7916 63.0599 14.2685L63.3389 24.2843C63.3401 24.3267 63.306 24.3618 63.2635 24.3618C63.2363 24.3618 63.2112 24.3471 63.1978 24.3234L57.2983 13.8385C57.1585 13.5902 56.9197 13.4131 56.6401 13.3584C55.9412 13.2217 54.5517 12.9766 53.55 12.9713C52.6488 12.9665 51.4449 13.1525 50.6645 13.2936ZM38.5568 13.2956C38.0924 13.3781 37.7629 13.7852 37.7629 14.2569V34.171C37.7629 34.6389 38.087 35.0437 38.547 35.1297C39.3497 35.2797 40.6096 35.481 41.55 35.4713C42.4017 35.4626 43.5339 35.2753 44.2788 35.1325C44.7369 35.0447 45.0589 34.6406 45.0589 34.1742V14.2539C45.0589 13.7836 44.7318 13.3772 44.2691 13.2929C43.5238 13.157 42.3974 12.9799 41.55 12.9716C40.614 12.9624 39.3602 13.1527 38.5568 13.2956Z" fill="url(#paint0_linear_33_5814)"/>
<path d="M74.7207 14.448C74.7207 13.8957 75.1684 13.448 75.7207 13.448H83.9927C85.0466 13.448 86.0903 13.5595 87.1239 13.7824C88.1778 13.9851 89.11 14.36 89.9207 14.9072C90.7516 15.4341 91.4204 16.1536 91.9271 17.0656C92.4338 17.9573 92.6871 19.0821 92.6871 20.44C92.6871 21.7573 92.3628 22.9227 91.7143 23.936C91.2583 24.6342 90.6621 25.2222 89.9256 25.7C89.4166 26.0302 89.2049 26.7047 89.5273 27.2187L93.5909 33.6978C93.9704 34.303 93.6113 35.095 92.9031 35.1892C91.8598 35.3281 90.4887 35.4804 89.55 35.4711C88.435 35.46 87.1437 35.2126 86.4887 35.0701C86.2143 35.0104 85.9841 34.8303 85.8512 34.5829L81.9632 27.3501C81.94 27.3069 81.8949 27.28 81.8459 27.28V27.28C81.7723 27.28 81.7127 27.3396 81.7127 27.4132V34.1782C81.7127 34.6427 81.3927 35.0457 80.9367 35.134C80.1597 35.2845 78.9531 35.4832 78.05 35.4711C77.2527 35.4604 76.1978 35.2788 75.4911 35.1375C75.0375 35.0468 74.7207 34.6449 74.7207 34.1823V14.448ZM81.6519 21.5376C81.6519 22.0899 82.0996 22.5376 82.6519 22.5376H83.0807C83.3239 22.5376 83.5874 22.5173 83.8711 22.4768C84.1751 22.4363 84.4487 22.3552 84.6919 22.2336C84.9554 22.0917 85.1682 21.9093 85.3303 21.6864C85.5127 21.4432 85.6039 21.1291 85.6039 20.744C85.6039 20.3589 85.533 20.0549 85.3911 19.832C85.2492 19.6091 85.0668 19.4469 84.8439 19.3456C84.621 19.224 84.3778 19.1531 84.1143 19.1328C83.8508 19.0923 83.6076 19.072 83.3847 19.072H82.6519C82.0996 19.072 81.6519 19.5197 81.6519 20.072V21.5376Z" fill="white"/>
<defs>
<linearGradient id="paint0_linear_33_5814" x1="0" y1="17.7362" x2="69.9074" y2="17.7362" gradientUnits="userSpaceOnUse">
<stop stop-color="#FFE714"/>
<stop offset="1" stop-color="#FFD000"/>
</linearGradient>
</defs>
</svg>
