<svg width="36" height="36" viewBox="0 0 36 36" fill="none" xmlns="http://www.w3.org/2000/svg">
<path fill-rule="evenodd" clip-rule="evenodd" d="M11.2159 29.8318L16.0399 19.3554C16.0758 19.2773 16.1308 19.211 16.1985 19.1615C16.2475 19.1065 16.3095 19.0615 16.3823 19.0318C16.4117 19.0198 16.4422 19.0106 16.4733 19.0044C17.1938 18.8613 17.8778 18.7898 18.5253 18.7898C18.5676 18.7898 18.6101 18.7901 18.6527 18.7907C18.6953 18.7901 18.7378 18.7898 18.7801 18.7898C19.4276 18.7898 20.1116 18.8613 20.8321 19.0044C20.8633 19.0106 20.8937 19.0198 20.9231 19.0318C20.996 19.0615 21.058 19.1065 21.107 19.1615C21.1746 19.211 21.2296 19.2773 21.2656 19.3554L26.0896 29.8318L29.1943 14.9449C29.2336 14.7563 29.3782 14.6073 29.5656 14.5624C30.2838 14.3901 31.3534 14.3039 32.7743 14.3039C33.9962 14.3039 34.8933 14.3676 35.4656 14.495C35.7338 14.5547 35.9029 14.8202 35.8436 15.0884L31.5063 34.722C31.4199 35.1132 31.1075 35.4145 30.7135 35.4867C29.4067 35.7261 28.1 35.7965 26.7933 35.6979C25.7468 35.6189 24.7004 35.4316 23.654 35.1359C22.7685 34.8857 22.0477 34.2413 21.7002 33.3893L18.6527 25.9171L15.6053 33.3893C15.2578 34.2413 14.537 34.8857 13.6515 35.1359C12.6051 35.4316 11.5586 35.6189 10.5122 35.6979C9.20547 35.7965 7.89873 35.7261 6.592 35.4867C6.19794 35.4145 5.88553 35.1132 5.79911 34.722L1.46181 15.0884C1.40257 14.8202 1.5717 14.5547 1.83981 14.495C2.41217 14.3676 3.30928 14.3039 4.53117 14.3039C5.95208 14.3039 7.02165 14.3901 7.73987 14.5624C7.92721 14.6073 8.07181 14.7563 8.11114 14.9449L11.2159 29.8318ZM24.2272 4.14234L19.0912 1.17704C18.7489 0.979397 18.3271 0.979397 17.9848 1.17704L12.8487 4.14234C12.592 4.29057 12.4338 4.56452 12.4338 4.86098L12.4338 10.9467C12.4338 11.2456 12.5946 11.5214 12.8546 11.6687L17.9927 14.5791C18.3309 14.7707 18.745 14.7707 19.0833 14.5791L24.2213 11.6687C24.4814 11.5214 24.6421 11.2456 24.6421 10.9467V4.86098C24.6421 4.56452 24.484 4.29057 24.2272 4.14234ZM19.5453 2.87163C19.5453 3.14968 19.0945 3.37509 18.5384 3.37509C17.9823 3.37509 17.5315 3.14968 17.5315 2.87163C17.5315 2.59357 17.9823 2.36816 18.5384 2.36816C19.0945 2.36816 19.5453 2.59357 19.5453 2.87163ZM18.5384 4.88507C19.0945 4.88507 19.5453 4.65966 19.5453 4.3816C19.5453 4.10355 19.0945 3.87814 18.5384 3.87814C17.9823 3.87814 17.5315 4.10355 17.5315 4.3816C17.5315 4.65966 17.9823 4.88507 18.5384 4.88507ZM19.5453 5.89165C19.5453 6.1697 19.0945 6.39511 18.5384 6.39511C17.9823 6.39511 17.5315 6.1697 17.5315 5.89165C17.5315 5.61359 17.9823 5.38818 18.5384 5.38818C19.0945 5.38818 19.5453 5.61359 19.5453 5.89165ZM21.5618 4.88507C22.1179 4.88507 22.5688 4.65966 22.5688 4.3816C22.5688 4.10355 22.1179 3.87814 21.5618 3.87814C21.0057 3.87814 20.5549 4.10355 20.5549 4.3816C20.5549 4.65966 21.0057 4.88507 21.5618 4.88507ZM16.5219 4.3816C16.5219 4.65966 16.0711 4.88507 15.5149 4.88507C14.9588 4.88507 14.508 4.65966 14.508 4.3816C14.508 4.10355 14.9588 3.87814 15.5149 3.87814C16.0711 3.87814 16.5219 4.10355 16.5219 4.3816ZM21.5142 9.47616C21.4347 10.146 21.6135 10.6494 21.9138 10.6005C22.214 10.5516 22.517 10.0304 22.5904 9.43636C22.6639 8.84234 22.485 8.33896 22.1909 8.31203C21.8968 8.28511 21.5938 8.80631 21.5142 9.47616ZM13.9302 9.16507C13.6214 9.19841 13.3519 8.82164 13.3281 8.32345C13.3044 7.82526 13.5229 7.38655 13.8165 7.34365C14.1104 7.30084 14.3808 7.67755 14.4199 8.18517C14.4587 8.69302 14.2393 9.13179 13.9302 9.16507ZM14.5308 9.5657C14.5689 10.0742 14.8589 10.4658 15.179 10.4403C15.4993 10.4149 15.7173 9.97361 15.6654 9.45504C15.6129 8.93689 15.3214 8.54583 15.0152 8.58126C14.7091 8.61678 14.4925 9.05747 14.5308 9.5657ZM16.4906 11.7766C16.1607 11.794 15.8529 11.3865 15.8026 10.8668C15.7517 10.3475 15.9671 9.9042 16.2843 9.87634C16.6018 9.84855 16.9115 10.2549 16.9751 10.7845C17.0378 11.3147 16.8205 11.7591 16.4906 11.7766ZM18.8366 7.41555C18.6926 7.48179 18.5272 7.48311 18.3822 7.41917L15.4775 6.13843C15.403 6.10562 15.3159 6.13478 15.2762 6.20576C15.2336 6.28179 15.2608 6.37789 15.3368 6.42041L17.9792 7.89822C18.1437 7.99024 18.2501 8.15971 18.2614 8.34789L18.4488 11.4696C18.4544 11.5633 18.5298 11.6376 18.6235 11.6421C18.7248 11.6468 18.8108 11.5686 18.8156 11.4673L18.963 8.34568C18.9718 8.1587 19.0746 7.98886 19.2362 7.89431L21.7546 6.42041C21.8248 6.37931 21.8524 6.29164 21.8184 6.21771C21.7819 6.13833 21.6879 6.10358 21.6085 6.14011L18.8366 7.41555Z" fill="#F8D90F"/>
</svg>
