<svg width="142" height="142" viewBox="0 0 142 142" fill="none" xmlns="http://www.w3.org/2000/svg">
<circle cx="29.5" cy="112.5" r="28.5" fill="#31C1BF"/>
<circle cx="112.5" cy="29.5" r="28.5" fill="#31C1BF"/>
<path d="M31.0871 57.9566C30.5617 57.9854 30.0326 58 29.5 58C13.7599 58 1 45.2401 1 29.5C1 13.7599 13.7599 1 29.5 1C45.2401 1 58 13.7599 58 29.5C58 29.7528 57.9967 30.0048 57.9902 30.256C62.8342 71.9672 91.1785 82.6816 110.276 84.0855C111.01 84.0289 111.752 84 112.5 84C128.24 84 141 96.7599 141 112.5C141 128.24 128.24 141 112.5 141C96.7599 141 84 128.24 84 112.5C84 112.009 84.0124 111.521 84.037 111.036C81.0224 71.8441 49.5414 59.1002 31.0871 57.9566Z" fill="#31C1BF" stroke="#31C1BF"/>
</svg>
